# xmcd
#
# Track frame offsets:
#  150
#  11516
#  21891
#  33103
#  45739
#  56088
#  66121
#  77130
#  88093
#  96814
#  106850
#  118881
#  130841
#  143540
#  153545
#  165101
#  175006
#  185649
#  196252
#  205253
#  215107
#  226274
#  236742
#  248638
#  259953
#  271005
#  281303
#  290934
#  300269
#  311983
#  324425
#  333551
#
# Disc length: 4595 seconds
#
# Revision: 0
# Processed by: cddbd v1.5.2PL0 Copyright (c) Steve Scherf et al.
# Submitted via: AltoMP3_Maker 3.0
#
DISCID=c511f120
DTITLE=Various Artist - RCA Victor Hillbilly, Vol. 6
DYEAR=1900
DGENRE=
TTITLE0=Johnny Tyler - Freight Train Boogie
TTITLE1=The Oklahoma Wranglers - Hoot Owl Boogie
TTITLE2=Anita Carter - He's a Real Gone Guy
TTITLE3=Sunshine Ruby - That Ain't in Any Catalog
TTITLE4=Eddie Marshall - Buddy Stay off of That Wine
TTITLE5=T. Tommy - Baby You're the Only One
TTITLE6=Ken Marvin - My Empty Arms
TTITLE7=Porter Wagoner - Headin' for a Weddin'
TTITLE8=Bob King - Anxious
TTITLE9=Wade Ray - Easy Pickin's
TTITLE10=Tex Williams - Sweet Little Boogalie
TTITLE11=Cecil Campbell - You Kept Makin' Eyes at Me
TTITLE12=Homer and Jethro - That Tired Run Down Feeling
TTITLE13=Johnnie and Jack - Private Property
TTITLE14=Lone Pine - I Heard the Bluebirds Sing
TTITLE15=Minnie and Grandpa - Gotta Marry off Our Daughter
TTITLE16=Rosalie Allen - Shoot Him High Paw
TTITLE17=Joyce Moore - Better Than Walkin' Home
TTITLE18=Anita Carter - False Hearted
TTITLE19=Ruby Wells - You Clobbered Me
TTITLE20=Martha Lynn - Learning to Love
TTITLE21=Dave Denny - Mu Bucket's Got a Hole in It
TTITLE22=Eddie Marshall - My Bucket's Been Fixed
TTITLE23=Johnny Tyler - City of Memphis
TTITLE24=Bob King - Did You Do It?
TTITLE25=Jack Turner - Hitchhiking a Ride
TTITLE26=Bobby Williamson - Yo Yo Heart
TTITLE27=The Diamond Bros - Coal Dust on the Fiddle
TTITLE28=Johnnie Lee Wills - There Are Just Two I's in Texas
TTITLE29=Guy Willis - Shine, Shave and Shower
TTITLE30=Eddie Hill - 'Cause I Have You
TTITLE31=T. Tommy - Little Hoo-Wee
EXTD=
EXTT0=
EXTT1=
EXTT2=
EXTT3=
EXTT4=
EXTT5=
EXTT6=
EXTT7=
EXTT8=
EXTT9=
EXTT10=
EXTT11=
EXTT12=
EXTT13=
EXTT14=
EXTT15=
EXTT16=
EXTT17=
EXTT18=
EXTT19=
EXTT20=
EXTT21=
EXTT22=
EXTT23=
EXTT24=
EXTT25=
EXTT26=
EXTT27=
EXTT28=
EXTT29=
EXTT30=
EXTT31=
PLAYORDER=
